Video
ID : 1
Format : AVC
Format/Info : Advanced Video Codec
Format profile : High@L4.1
Codec ID : V_MPEG4/ISO/AVC
Duration : 1h 58mn
Bit rate mode : Variable
Bit rate : 12.5 Mbps
Maximum bit rate : 18.1 Mbps
Width : 1 920 pixels
Height : 1 080 pixels
Display aspect ratio : 16:9
Frame rate : 23.976 fps
Color space : YUV
Bit depth : 8 bits
Scan type : Progressive
Bits/(Pixel*Frame) : 0.252
Stream size : 10.4 GiB (79%)
Language : English

Audio #1
ID : 2
Format : DTS
Format/Info : Digital Theater Systems
Codec ID : A_DTS
Duration : 1h 58mn
Bit rate mode : Constant
Bit rate : 1 510 Kbps
Channel(s) : 6 channels
Channel positions : Front: L C R, Side: L R, LFE
Sampling rate : 48.0 KHz
Bit depth : 16 bits
Compression mode : Lossy
Stream size : 1.25 GiB (9%)
Language : English

Audio #2
ID : 3
Format : DTS
Format/Info : Digital Theater Systems
Format profile : MA / Core
Codec ID : A_DTS
Duration : 1h 58mn
Bit rate mode : Variable
Bit rate : 1 561 Kbps / 1 510 Kbps
Channel(s) : 6 channels
Channel positions : Front: L C R, Side: L R, LFE
Sampling rate : 48.0 KHz
Bit depth : 16 bits
Compression mode : Lossless / Lossy
Language : French